# xmcd
#
# Track frame offsets:
#	150
#	11924
#	23379
#	35974
#	46812
#	60569
#	73337
#	83470
#	96101
#	108284
#	121884
#	135176
#	149208
#	162288
#	173487
#	186108
#	199565
#	212496
#	224535
#	235814
#
# Disc length: 3321 seconds
#
# Revision: 1
# Processed by: cddbd v1.5.2PL0 Copyright (c) Steve Scherf et al.
# Submitted via: audiograbber 1.83.01
#
DISCID=120cf714
DTITLE=Muddy Waters - Father Of Chicago Blues CD-2
DYEAR=2006
DGENRE=Blues
TTITLE0=My Life Is Ruined
TTITLE1=She's All Right
TTITLE2=Turn The Lamp Down Low (Baby Please Don't Go)
TTITLE3=Loving Man
TTITLE4=Mad Love (I Want You To Love Me)
TTITLE5=I'm Your Hoochie Coochie Man
TTITLE6=She's So Pretty
TTITLE7=I Just Want To Make Love To You
TTITLE8=Ooh Wee
TTITLE9=I'm Ready
TTITLE10=I Don't Know Why
TTITLE11=Smokestack Lightnin'
TTITLE12=Oh! Yeh
TTITLE13=I Want To Be Loved
TTITLE14=I'm A Natural Born Lover
TTITLE15=Young Fashioned Ways
TTITLE16=I Got To Find My Baby
TTITLE17=Trouble No More
TTITLE18=Sugar Sweet
TTITLE19=Mannish Boy
EXTD=
EXTT0=
EXTT1=
EXTT2=
EXTT3=
EXTT4=
EXTT5=
EXTT6=
EXTT7=
EXTT8=
EXTT9=
EXTT10=
EXTT11=
EXTT12=
EXTT13=
EXTT14=
EXTT15=
EXTT16=
EXTT17=
EXTT18=
EXTT19=
PLAYORDER=
